<svg width="51" height="65" viewBox="0 0 51 65" fill="none" xmlns="http://www.w3.org/2000/svg">
<path d="M9.01002 46.01H29.77C31.08 46.01 32.15 44.94 32.15 43.63V39.16C32.15 37.85 31.08 36.78 29.77 36.78L13.92 36.77C11.33 36.77 9.23002 34.67 9.22002 32.08V13.92C9.22002 11.33 11.32 9.23 13.9 9.22H48.26C49.65 9.16 50.45 8.8 50.45 7.77C50.44 4.02 47.05 0.07 41.92 0.03L8.69002 0C3.49002 0.02 -0.00997863 3.8 2.13728e-05 8.93V37.07C0.220021 42.02 3.26002 46.01 9.01002 46.01Z" fill="#BE002F"/>
<path d="M41.57 18.27H20.8C19.49 18.27 18.42 19.34 18.42 20.65V25.12C18.42 26.43 19.49 27.5 20.8 27.5L36.65 27.51C39.24 27.51 41.34 29.61 41.35 32.2V50.36C41.35 52.95 39.25 55.05 36.67 55.06H2.30001C0.910015 55.12 0.110016 55.48 0.110016 56.51C0.120016 60.26 3.51001 64.21 8.64001 64.25L41.89 64.29C47.09 64.27 50.59 60.49 50.58 55.36V27.21C50.36 22.26 47.31 18.27 41.57 18.27Z" fill="#61AF54"/>
</svg>
